<?xml version="1.0" encoding="utf-8"?>
<!-- Generator: Adobe Illustrator 27.5.0, SVG Export Plug-In . SVG Version: 6.00 Build 0)  -->
<svg version="1.1" xmlns="http://www.w3.org/2000/svg" xmlns:xlink="http://www.w3.org/1999/xlink" x="0px" y="0px"
	 viewBox="0 0 500 500" style="enable-background:new 0 0 500 500;" xml:space="preserve">
<g id="Floor">
	<ellipse style="fill:#F5F5F5;" cx="250" cy="358.491" rx="222.503" ry="128.462"/>
</g>
<g id="Shadows">
	<ellipse style="fill:#E6E6E6;" cx="95.578" cy="369.756" rx="24.631" ry="14.22"/>
	<path style="fill:#E6E6E6;" d="M285.257,293.531l-161.875,93.459c-2.685,1.55-2.685,5.425,0,6.975l95.135,54.927
		c4.868,2.81,10.865,2.81,15.733,0l161.875-93.459c2.685-1.55,2.685-5.425,0-6.975l-95.135-54.927
		C296.122,290.72,290.125,290.72,285.257,293.531z"/>
	<path style="fill:#E6E6E6;" d="M236.654,294.441l-64.809,37.417c-5.703,3.293-5.703,11.525,0,14.817l32.635,18.842
		c4.393,2.536,9.805,2.536,14.198,0l64.809-37.418c5.703-3.293,5.703-11.525,0-14.817l-32.635-18.842
		C246.46,291.905,241.047,291.905,236.654,294.441z"/>
</g>
<g id="Plant">
	<g>
		<g>
			<path style="fill:#BA68C8;" d="M96.877,332.956c0,0-15.221-14.863-6.558-39.761c4.855-13.955,20.94-24.201,30.102-25.165
				c0,0-4.97,5.727-7.158,12.071l-11.537,7.67l10.605-3.321l-2.258,9.078c0,0-9.864,5.965-11.325,7.266l10.633-2.779
				C109.379,298.015,108.564,323.716,96.877,332.956z"/>
			<path style="opacity:0.4;" d="M96.877,332.956c0,0-15.221-14.863-6.558-39.761c4.855-13.955,20.94-24.201,30.102-25.165
				c0,0-4.97,5.727-7.158,12.071l-11.537,7.67l10.605-3.321l-2.258,9.078c0,0-9.864,5.965-11.325,7.266l10.633-2.779
				C109.379,298.015,108.564,323.716,96.877,332.956z"/>
			<path style="fill:#FFFFFF;" d="M96.877,332.956c0,0-7.881-31.104,3.779-49.242C100.656,283.714,86.987,299.719,96.877,332.956z"
				/>
		</g>
		<path style="fill:#37474F;" d="M114.296,337.167l-18.623-0.234v-0.002l-0.095,0.001l-0.095-0.001v0.002l-18.623,0.234
			c0,0-0.207,22.942,6.859,32.277h0c1.951,2.482,6.526,4.224,11.859,4.224c5.342,0,9.922-1.748,11.868-4.237
			C114.502,360.088,114.296,337.167,114.296,337.167z"/>
		<ellipse style="fill:#455A64;" cx="95.578" cy="337.167" rx="18.719" ry="10.049"/>
		<g>
			<path style="fill:#263238;" d="M95.578,334.501c6.44,0,11.894,2.066,13.815,4.926c0.478-0.712,0.746-1.47,0.746-2.261
				c0-3.969-6.519-7.187-14.561-7.187c-8.042,0-14.561,3.218-14.561,7.187c0,0.791,0.268,1.549,0.746,2.261
				C83.684,336.567,89.138,334.501,95.578,334.501z"/>
			<g>
				<path style="fill:#E0E0E0;" d="M95.578,334.501c-6.44,0-11.894,2.066-13.815,4.926c1.921,2.861,7.375,4.926,13.815,4.926
					c6.44,0,11.894-2.066,13.815-4.926C107.472,336.567,102.018,334.501,95.578,334.501z"/>
			</g>
		</g>
		<g>
			<path style="fill:#BA68C8;" d="M95.807,340.669c0,0-7.214-0.28-13.401-9.861c-2.552-3.951-3.782-6.027-3.782-6.027l10.051-0.749
				l-11.26-2.815l-5.321-8.14l9.351-0.694c0,0-6.965-2.44-11.938-2.471c0,0-8.623-15.234-11.146-17.405
				c0,0,19.889,0.164,34.065,16.926S97.91,341.098,95.807,340.669z"/>
			<path style="fill:#FFFFFF;" d="M95.807,340.669c0,0,4.512-27.175-24.281-43.522C71.526,297.147,101.409,311.501,95.807,340.669z"
				/>
		</g>
		<g>
			<path style="fill:#BA68C8;" d="M95.807,340.669c0,0,6.535,0.426,13.019-7.635c2.675-3.325,3.98-5.081,3.98-5.081l-8.998-1.622
				l10.424-1.479l5.567-6.843l-8.372-1.507c0,0,6.514-1.545,11.003-1.106c0,0,9.215-12.932,11.695-14.653
				c0,0-17.96-1.724-32.328,12.063S93.869,340.858,95.807,340.669z"/>
			<path style="opacity:0.2;" d="M95.807,340.669c0,0,6.535,0.426,13.019-7.635c2.675-3.325,3.98-5.081,3.98-5.081l-8.998-1.622
				l10.424-1.479l5.567-6.843l-8.372-1.507c0,0,6.514-1.545,11.003-1.106c0,0,9.215-12.932,11.695-14.653
				c0,0-17.96-1.724-32.328,12.063S93.869,340.858,95.807,340.669z"/>
			<path style="fill:#FFFFFF;" d="M95.807,340.669c0,0-1.512-24.943,26.005-36.98C121.812,303.688,93.499,313.826,95.807,340.669z"
				/>
		</g>
	</g>
</g>
<g id="Pictures">
	<g>
		<polygon style="fill:#FAFAFA;" points="128.906,119.397 128.906,169.077 85.882,193.917 85.882,144.237 128.906,119.397 		"/>
		<path style="fill:#E0E0E0;" d="M124.248,122.086v44.301l-38.366,22.151v-44.301L124.248,122.086 M126.577,118.052l-43.024,24.84
			v49.68l2.329,1.345l43.024-24.84v-49.68L126.577,118.052L126.577,118.052z"/>
		<path style="fill:#EBEBEB;" d="M126.577,123.431v44.301l-38.366,22.151v-44.301L126.577,123.431 M128.906,119.397l-43.024,24.84
			v49.68l43.024-24.84V119.397L128.906,119.397z"/>
		<g>
			<polygon style="fill:#E0E0E0;" points="122.592,157.712 90.044,176.504 99.66,151.485 106.318,159.393 113.126,149.698 			"/>
			<path style="fill:#E0E0E0;" d="M111.301,142.105c0,1.893-1.329,4.196-2.969,5.142c-1.64,0.947-2.969,0.179-2.969-1.714
				c0-1.893,1.329-4.196,2.969-5.142C109.972,139.444,111.301,140.211,111.301,142.105z"/>
		</g>
	</g>
	<g>
		<polygon style="fill:#FAFAFA;" points="143.261,57.545 143.261,97.122 108.986,116.911 108.986,77.334 143.261,57.545 		"/>
		<path style="fill:#E0E0E0;" d="M139.55,59.687V94.98l-30.564,17.646V77.334L139.55,59.687 M141.405,56.474L107.13,76.262v39.577
			l1.855,1.071l34.275-19.789V57.545L141.405,56.474L141.405,56.474z"/>
		<path style="fill:#EBEBEB;" d="M141.405,60.758v35.293l-30.564,17.646V78.405L141.405,60.758 M143.261,57.545l-34.275,19.789
			v39.577l34.275-19.789V57.545L143.261,57.545z"/>
		<g>
			<polygon style="fill:#E0E0E0;" points="138.23,88.068 112.301,103.038 119.962,83.107 125.266,89.408 130.69,81.684 			"/>
			<path style="fill:#E0E0E0;" d="M129.236,75.635c0,1.508-1.059,3.342-2.365,4.097c-1.306,0.754-2.365,0.143-2.365-1.366
				s1.059-3.342,2.365-4.097C128.177,73.515,129.236,74.126,129.236,75.635z"/>
		</g>
	</g>
</g>
<g id="Character">
	<g>
		<g>
			<g>
				<path style="fill:#263238;" d="M216.153,286.328l13.912,84.889c0.21,1.28,1.316,2.22,2.613,2.22l0,0
					c1.579,0,2.807-1.373,2.632-2.941l-9.76-87.576L216.153,286.328z"/>
				<path style="fill:#263238;" d="M264.173,257.777l13.912,84.889c0.21,1.28,1.316,2.22,2.613,2.22l0,0
					c1.579,0,2.807-1.372,2.632-2.941l-9.76-87.576L264.173,257.777z"/>
				<path style="fill:#263238;" d="M194.797,266.476l-13.728,73.154c-0.194,1.058-1.11,1.819-2.193,1.819
					c-1.355,0-2.4-1.213-2.206-2.555l10.141-67.8L194.797,266.476z"/>
				<path style="fill:#263238;" d="M243.36,239.188l-13.65,72.702c-0.193,1.058-1.11,1.819-2.193,1.819
					c-1.355,0-2.4-1.213-2.206-2.554l10.063-67.361L243.36,239.188z"/>
				<path style="fill:#BA68C8;" d="M239.4,233.654c-6.406-2.856-10.796-8.895-11.49-15.875
					c-2.214-22.274-10.058-68.176-36.643-52.896c-32.813,18.86-21.065,73.627-16.294,91.189c1.076,3.962,3.138,7.575,6.03,10.489
					c5.928,5.972,18.201,16.255,39.073,25.01c2.56,1.074,5.413,1.243,8.083,0.482c10.37-2.954,37.462-12.026,50.969-29.298
					c1.597-2.042,1.25-4.99-0.779-6.603C272.877,251.802,260.515,243.067,239.4,233.654z"/>
				<path style="opacity:0.5;" d="M239.4,233.654c-6.406-2.856-10.796-8.895-11.49-15.875
					c-2.214-22.274-10.058-68.176-36.643-52.896c-32.813,18.86-21.065,73.627-16.294,91.189c1.076,3.962,3.138,7.575,6.03,10.489
					c5.928,5.972,18.201,16.255,39.073,25.01c2.56,1.074,5.413,1.243,8.083,0.482c10.37-2.954,37.462-12.026,50.969-29.298
					c1.597-2.042,1.25-4.99-0.779-6.603C272.877,251.802,260.515,243.067,239.4,233.654z"/>
				<path style="fill:#BA68C8;" d="M280.105,259.61c0.055,1.095-0.249,2.214-0.977,3.145c-0.721,0.922-1.488,1.815-2.282,2.691l0,0
					c0,0,0,0-0.001,0.001c-0.434,0.479-0.879,0.95-1.332,1.415c-0.009,0.009-0.018,0.019-0.027,0.028
					c-0.45,0.46-0.908,0.913-1.375,1.359c-0.014,0.013-0.027,0.026-0.041,0.039c-0.467,0.446-0.943,0.885-1.426,1.317
					c-0.012,0.011-0.024,0.022-0.036,0.032c-0.487,0.436-0.982,0.864-1.484,1.287c-0.006,0.005-0.013,0.011-0.019,0.016
					c-7.66,6.433-16.956,11.327-25.268,14.86c-0.011,0.005-0.021,0.009-0.032,0.014c-0.518,0.22-1.03,0.434-1.539,0.643
					c-0.053,0.022-0.107,0.044-0.16,0.066c-0.477,0.195-0.949,0.386-1.417,0.572c-0.082,0.033-0.165,0.066-0.247,0.098
					c-0.445,0.176-0.885,0.348-1.321,0.516c-0.101,0.039-0.202,0.078-0.303,0.116c-0.415,0.159-0.826,0.314-1.232,0.465
					c-0.12,0.044-0.238,0.089-0.357,0.132c-0.383,0.142-0.762,0.28-1.136,0.415c-0.138,0.05-0.275,0.099-0.412,0.148
					c-0.354,0.127-0.705,0.251-1.05,0.372c-0.147,0.051-0.29,0.101-0.435,0.151c-0.328,0.114-0.653,0.226-0.972,0.334
					c-0.157,0.053-0.31,0.104-0.465,0.156c-0.298,0.1-0.594,0.199-0.883,0.294c-0.17,0.056-0.334,0.109-0.501,0.163
					c-0.266,0.086-0.531,0.173-0.788,0.255c-0.182,0.058-0.357,0.113-0.534,0.169c-0.23,0.073-0.462,0.146-0.685,0.215
					c-0.197,0.061-0.385,0.118-0.576,0.177c-0.193,0.059-0.39,0.12-0.576,0.176c-0.243,0.073-0.473,0.141-0.704,0.21
					c-0.118,0.035-0.243,0.073-0.358,0.107c-0.346,0.102-0.68,0.198-0.996,0.288c-2.67,0.761-5.523,0.592-8.083-0.482
					c-20.872-8.755-33.145-19.038-39.073-25.01c-2.892-2.914-4.954-6.527-6.03-10.489c-4.771-17.562-16.519-72.329,16.294-91.189
					c0.582-0.334,1.151-0.629,1.715-0.906c0.123-0.06,0.246-0.121,0.368-0.179c0.555-0.262,1.103-0.502,1.641-0.709
					c0.053-0.02,0.105-0.037,0.157-0.056c0.516-0.195,1.023-0.362,1.524-0.508c0.077-0.022,0.155-0.047,0.231-0.068
					c0.539-0.15,1.069-0.272,1.589-0.367c0.045-0.008,0.089-0.014,0.133-0.022c1.087-0.188,2.135-0.26,3.145-0.221
					c0.02,0.001,0.039,0.002,0.059,0.003c1.033,0.044,2.027,0.2,2.982,0.462c0,0,0,0,0,0c-5.242-2.316-11.641-2.211-17.986,1.436
					c-32.813,18.86-21.064,73.627-16.294,91.189l0.807,3.017c1.629,6.093,5.23,11.475,10.241,15.305l8.514,6.508v-0.004
					c6.894,5.302,16.674,11.486,29.948,17.057c2.568,1.078,5.429,1.26,8.108,0.497c10.364-2.952,37.466-12.024,50.977-29.3
					c0.602-0.77,0.912-1.667,0.971-2.572h0.021v-5.849L280.105,259.61z"/>
				<path style="opacity:0.6;" d="M280.105,259.61c0.055,1.095-0.249,2.214-0.977,3.145c-0.721,0.922-1.488,1.815-2.282,2.691l0,0
					c0,0,0,0-0.001,0.001c-0.434,0.479-0.879,0.95-1.332,1.415c-0.009,0.009-0.018,0.019-0.027,0.028
					c-0.45,0.46-0.908,0.913-1.375,1.359c-0.014,0.013-0.027,0.026-0.041,0.039c-0.467,0.446-0.943,0.885-1.426,1.317
					c-0.012,0.011-0.024,0.022-0.036,0.032c-0.487,0.436-0.982,0.864-1.484,1.287c-0.006,0.005-0.013,0.011-0.019,0.016
					c-7.66,6.433-16.956,11.327-25.268,14.86c-0.011,0.005-0.021,0.009-0.032,0.014c-0.518,0.22-1.03,0.434-1.539,0.643
					c-0.053,0.022-0.107,0.044-0.16,0.066c-0.477,0.195-0.949,0.386-1.417,0.572c-0.082,0.033-0.165,0.066-0.247,0.098
					c-0.445,0.176-0.885,0.348-1.321,0.516c-0.101,0.039-0.202,0.078-0.303,0.116c-0.415,0.159-0.826,0.314-1.232,0.465
					c-0.12,0.044-0.238,0.089-0.357,0.132c-0.383,0.142-0.762,0.28-1.136,0.415c-0.138,0.05-0.275,0.099-0.412,0.148
					c-0.354,0.127-0.705,0.251-1.05,0.372c-0.147,0.051-0.29,0.101-0.435,0.151c-0.328,0.114-0.653,0.226-0.972,0.334
					c-0.157,0.053-0.31,0.104-0.465,0.156c-0.298,0.1-0.594,0.199-0.883,0.294c-0.17,0.056-0.334,0.109-0.501,0.163
					c-0.266,0.086-0.531,0.173-0.788,0.255c-0.182,0.058-0.357,0.113-0.534,0.169c-0.23,0.073-0.462,0.146-0.685,0.215
					c-0.197,0.061-0.385,0.118-0.576,0.177c-0.193,0.059-0.39,0.12-0.576,0.176c-0.243,0.073-0.473,0.141-0.704,0.21
					c-0.118,0.035-0.243,0.073-0.358,0.107c-0.346,0.102-0.68,0.198-0.996,0.288c-2.67,0.761-5.523,0.592-8.083-0.482
					c-20.872-8.755-33.145-19.038-39.073-25.01c-2.892-2.914-4.954-6.527-6.03-10.489c-4.771-17.562-16.519-72.329,16.294-91.189
					c0.582-0.334,1.151-0.629,1.715-0.906c0.123-0.06,0.246-0.121,0.368-0.179c0.555-0.262,1.103-0.502,1.641-0.709
					c0.053-0.02,0.105-0.037,0.157-0.056c0.516-0.195,1.023-0.362,1.524-0.508c0.077-0.022,0.155-0.047,0.231-0.068
					c0.539-0.15,1.069-0.272,1.589-0.367c0.045-0.008,0.089-0.014,0.133-0.022c1.087-0.188,2.135-0.26,3.145-0.221
					c0.02,0.001,0.039,0.002,0.059,0.003c1.033,0.044,2.027,0.2,2.982,0.462c0,0,0,0,0,0c-5.242-2.316-11.641-2.211-17.986,1.436
					c-32.813,18.86-21.064,73.627-16.294,91.189l0.807,3.017c1.629,6.093,5.23,11.475,10.241,15.305l8.514,6.508v-0.004
					c6.894,5.302,16.674,11.486,29.948,17.057c2.568,1.078,5.429,1.26,8.108,0.497c10.364-2.952,37.466-12.024,50.977-29.3
					c0.602-0.77,0.912-1.667,0.971-2.572h0.021v-5.849L280.105,259.61z"/>
			</g>
			<g>
				<g>
					<path style="fill:#BA68C8;" d="M298.213,322.277c-2.245-14.283-5.111-37.125-6.755-50.631
						c-0.108-0.888-0.257-1.766-0.447-2.632c-1.647-7.539-6.585-13.949-13.216-17.896l-33.657-20.037l-22.851-12.018
						c0,0-6.082,17.621,0.984,28.394c5.881,8.966,31.84,20.086,39.554,23.831c7.714,3.744,7.881,4.765,7.72,9.772
						s-0.166,11.386,9.317,31.371c2.725,5.742,4.624,10.038,5.949,13.329C288.115,326.047,293.02,325.639,298.213,322.277z"/>
					<path style="opacity:0.7;" d="M298.213,322.277c-2.245-14.283-5.111-37.125-6.755-50.631c-0.162-1.331-0.417-2.642-0.76-3.923
						c-1.873-6.994-6.625-12.868-12.846-16.572l-33.713-20.071l-22.851-12.018c0,0-6.082,17.621,0.984,28.394
						c5.881,8.966,31.84,20.086,39.554,23.831c7.714,3.744,7.881,4.765,7.72,9.772s-0.166,11.386,9.317,31.371
						c2.725,5.742,4.624,10.038,5.949,13.329C288.115,326.047,293.02,325.639,298.213,322.277z"/>
					<path style="fill:#FFA8A7;" d="M287.802,337.406c-0.015,0.597,0.122,1.179,0.407,1.704c0.628,1.154,2.063,3.318,5.063,6.025
						c4.534,4.089,19.565,20.093,24.85,10.158c0,0-15.528-14.873-17.586-20.99c-0.585-1.738-1.402-6.166-2.323-12.025
						c-5.193,3.362-10.098,3.77-13.401,3.483C287.724,332.992,287.853,335.35,287.802,337.406z"/>
					<g>
						<path style="fill:#455A64;" d="M303.961,336.433l-0.431-1.29c-0.335-1.003-1.409-1.554-2.418-1.243l-6.292,1.94
							c-0.811,0.25-1.364,1-1.364,1.849v0.629c0,0.621-0.503,1.124-1.124,1.124l0,0c-1.332,0-2.623-0.464-3.651-1.311l-0.879-0.725
							v-2.199l0,0c-1.156,0.752-1.826,2.062-1.754,3.439c0.078,1.492,0.151,3.314,0.096,4.038c-0.101,1.314-1.337,6.818,0.135,8.445
							c1.473,1.627,4.767,1.82,8.847,1.38c4.08-0.44,8.545,3.575,12.326,5.061s19.439,4.693,19.4-5.318
							c-0.01-2.549-2.532-3.589-5.008-4.494c-2.475-0.905-11.413-4.052-13.704-5.942c-1.049-0.866-1.918-1.78-2.551-2.517
							C304.863,338.456,304.314,337.488,303.961,336.433z"/>
						<g>
							<path style="fill:#263238;" d="M307.452,357.569c-3.781-1.486-8.246-5.501-12.326-5.061c-4.08,0.44-7.375,0.247-8.847-1.38
								c-0.443-0.49-0.639-1.335-0.695-2.308c-0.076,1.54,0.044,3.02,0.695,3.74c1.473,1.627,4.767,1.82,8.847,1.38
								c4.08-0.44,8.545,3.575,12.326,5.061c3.781,1.486,19.44,4.693,19.4-5.318c-0.001-0.155-0.038-0.288-0.057-0.433
								C325.805,362.036,311.101,359.003,307.452,357.569z"/>
						</g>
					</g>
				</g>
				<g>
					<path style="fill:#BA68C8;" d="M267.636,339.62c-2.245-14.283-5.111-37.124-6.755-50.631c-0.865-7.1-4.37-13.607-9.819-18.24
						l-40.394-34.343l-21.585-0.372c0,0-4.453,17.993,2.613,28.766c5.881,8.966,31.84,20.087,39.554,23.831
						c7.714,3.744,7.882,4.765,7.72,9.772c-0.161,5.007-0.166,11.386,9.317,31.371c2.725,5.742,4.624,10.038,5.949,13.329
						C257.538,343.39,262.443,342.982,267.636,339.62z"/>
					<path style="opacity:0.7;" d="M267.636,339.62c-2.245-14.283-5.111-37.124-6.755-50.631c-0.865-7.1-4.37-13.607-9.819-18.24
						l-40.394-34.343l-21.585-0.372c0,0-4.453,17.993,2.613,28.766c5.881,8.966,31.84,20.087,39.554,23.831
						c7.714,3.744,7.882,4.765,7.72,9.772c-0.161,5.007-0.166,11.386,9.317,31.371c2.725,5.742,4.624,10.038,5.949,13.329
						C257.538,343.39,262.443,342.982,267.636,339.62z"/>
					<path style="fill:#FFA8A7;" d="M257.214,353.464c-0.015,0.597-0.414,2.371,0.418,2.989c1.055,0.783,2.063,3.318,5.063,6.025
						c4.534,4.089,9.322-4.715,7.264-10.832c-0.585-1.738-1.402-6.166-2.323-12.025c-5.193,3.362-10.098,3.77-13.401,3.483
						C257.147,350.335,257.265,351.408,257.214,353.464z"/>
				</g>
			</g>
			<g>
				<path style="fill:#FFA8A7;" d="M230.517,161.521L230.517,161.521c6.381-0.996,12.588,2.729,14.613,8.861
					c1.216,3.684,2.307,8.18,2.73,13.213c1.165,13.851,1.489,20.777,1.489,20.777l13.914,6.311c0,0-7.514,0.361-7.005,10.971
					l-17.33-4.369L230.517,161.521z"/>
				<path style="fill:#BA68C8;" d="M249.863,196c-2.05-15.006-2.864-22.849-4.624-26.575c-2.758-5.839-8.341-8.9-14.722-7.905
					l5.239,41.201l0.675-0.066c4.641-0.454,9.014-2.387,12.474-5.514L249.863,196z"/>
				<path style="opacity:0.2;" d="M249.863,196c-2.05-15.006-2.864-22.849-4.624-26.575c-2.758-5.839-8.341-8.9-14.722-7.905
					l5.239,41.201l0.675-0.066c4.641-0.454,9.014-2.387,12.474-5.514L249.863,196z"/>
				<path style="fill:#F28F8F;" d="M249.349,204.372c0,0-2.654,0.777-4.11,2.524c0,0,1.678-3.19,4.025-4.175L249.349,204.372z"/>
			</g>
			<path style="fill:#BA68C8;" d="M197.099,173.666l15.563-7.537l12.822-4.425c0,0,10.272-3.277,12.901,10.413
				c2.161,11.253,2.444,54.008,2.444,54.008l-0.229,4.679c0,0-5.932,16.615-27.123,17.99c-21.191,1.375-25.315-7.56-25.315-7.56
				S186.016,184.665,197.099,173.666z"/>
			<path style="fill:#263238;" d="M246.129,127.96c0,0,4.811,12.328-1.833,17.756c-6.644,5.428-4.341-16.382-4.341-16.382
				L246.129,127.96z"/>
			<g>
				<g>
					<path style="fill:#455A64;" d="M234.412,445.411c-1.508,0.871-3.953,0.871-5.461,0c-1.508-0.871-1.508-2.282,0-3.153
						c1.508-0.871,3.953-0.871,5.461,0C235.92,443.129,235.92,444.541,234.412,445.411z"/>
					<rect x="227.827" y="350.79" style="fill:#37474F;" width="7.724" height="92.958"/>
				</g>
				<g>
					<ellipse style="fill:#455A64;" cx="143.867" cy="392.27" rx="3.862" ry="2.23"/>
					<rect x="140.013" y="299.226" style="fill:#263238;" width="7.724" height="92.958"/>
				</g>
				<g>
					<path style="fill:#455A64;" d="M378.364,362.009c-1.508,0.871-3.953,0.871-5.461,0c-1.508-0.871-1.508-2.282,0-3.153
						c1.508-0.871,3.953-0.871,5.461,0C379.872,359.727,379.872,361.138,378.364,362.009z"/>
					<rect x="371.779" y="267.388" style="fill:#37474F;" width="7.724" height="92.958"/>
				</g>
				<g>
					<path style="fill:#455A64;" d="M283.962,291.664c-1.353,0.781-3.546,0.781-4.899,0c-1.353-0.781-1.353-2.047,0-2.828
						c1.353-0.781,3.546-0.781,4.899,0C285.314,289.616,285.314,290.883,283.962,291.664z"/>
					<rect x="278.055" y="212.596" style="fill:#455A64;" width="6.928" height="77.576"/>
				</g>
				<g>
					<polygon style="fill:#263238;" points="140.005,283.827 140.005,302.321 231.695,355.258 231.695,336.763 					"/>
					<polygon style="fill:#37474F;" points="379.503,251.427 231.695,336.763 231.695,355.258 379.503,269.921 					"/>
					<polygon style="fill:#455A64;" points="287.813,198.49 140.005,283.827 231.695,336.763 379.503,251.427 					"/>
				</g>
			</g>
			<polygon style="fill:#EBEBEB;" points="213.659,256.076 247.279,275.486 303.174,243.162 269.559,223.356 			"/>
			<polygon style="fill:#E0E0E0;" points="243.661,250.553 256.274,243.271 248.368,238.707 235.756,245.989 			"/>
			<polygon style="fill:#E0E0E0;" points="248.708,270.638 231.717,260.638 264.922,240.541 			"/>
			<g>
				<path style="fill:#FFA8A7;" d="M258.218,208.281l13.45,6.308c5.39,1.264,11.877,3.67,11.877,3.67s9.357,3.825,9.784,6.334
					c0.427,2.509-7.022,8.554-13.567,5.613c-1.32-0.593-3.702-1.791-5.458-1.977c-1.757-0.187-6.973-1.008-10.749-4.609
					l-15.697-4.083C247.857,219.536,247.075,209.842,258.218,208.281z"/>
				<path style="fill:#FFA8A7;" d="M266.926,227.044c1.558,1.667,5.999,5.877,6.968,7.093c0.969,1.216,3.258-1.911-0.755-6.571
					c0,0-5.343-1.847-9.69-5.275C263.449,222.29,265.368,225.377,266.926,227.044z"/>
			</g>
			<g>
				<g>
					<g>
						<rect x="212.662" y="146.809" style="fill:#FFA8A7;" width="15.965" height="19.32"/>
					</g>
				</g>
				<path style="fill:#F28F8F;" d="M228.626,166.129c-5.642-2.178-11.538-6.549-14.666-13.948v-5.372h14.666V166.129z"/>
				<path style="fill:#FFA8A7;" d="M233.998,121.303c0,0,14.521,1.747,11.191,26.553c-1.54,11.472-4.605,17.272-13.45,16.29
					c-10.023-1.112-23.868-8.896-21.722-28.552C212.163,115.938,233.998,121.303,233.998,121.303z"/>
				<polygon style="fill:#F28F8F;" points="234.812,143.423 234.286,151.988 239.397,150.756 				"/>
				<g>
					<path style="fill:#263238;" d="M227.209,142.649c-0.059,0.964,0.674,1.793,1.638,1.852c0.964,0.059,1.793-0.674,1.852-1.638
						c0.059-0.964-0.674-1.793-1.638-1.852C228.098,140.952,227.268,141.686,227.209,142.649z"/>
					<path style="fill:#263238;" d="M238.763,142.137c-0.059,0.964,0.674,1.793,1.638,1.852c0.964,0.059,1.793-0.674,1.852-1.638
						c0.059-0.964-0.674-1.793-1.638-1.852C239.651,140.44,238.822,141.173,238.763,142.137z"/>
					<path style="fill:#263238;" d="M242.857,138.74l-3.288-2.236c0,0,1.394-1.281,2.647-0.383
						C243.47,137.019,242.857,138.74,242.857,138.74z"/>
					<path style="fill:#263238;" d="M228.422,138.349l-3.553,1.785c0,0-0.441-1.84,0.953-2.499
						C227.216,136.977,228.422,138.349,228.422,138.349z"/>
				</g>
				<path style="fill:#F28F8F;" d="M234.537,155.469c0,0-3.33,0.099-5.526-1.849c0,0-0.565,2.935,1.879,3.653
					C233.334,157.992,234.537,155.469,234.537,155.469z"/>
				<path style="fill:#263238;" d="M212.488,143.223c0,0,2.235,4.643,3.61,4.482s0-17.801,2.864-17.915
					c2.864-0.115,16.357,6.591,28.293-2.062c4.582-3.322,5.498-11.798,2.749-10.996c-2.749,0.802-6.46,3.207-11.477,2.864
					c-5.018-0.344-22.543-8.476-26.896,2.978c0,0-9.706-0.791-6.06,18.471c0.905,4.782,3.769,16.649,7.091,17.817L212.488,143.223z"
					/>
				<path style="fill:#FFA8A7;" d="M213.275,147.459c0.04-1.451-0.193-2.911-0.787-4.236c-0.666-1.485-1.843-2.985-3.885-3.041
					c-4.484-0.123-5.089,4.194-5.029,5.731c0.159,4.036,3.426,8.396,9.508,8.563L213.275,147.459z"/>
			</g>
			<path style="fill:#FFA8A7;" d="M214.663,233.909l11.437,9.061c0,0,3.618,0.349,5.804,1.005c2.186,0.656,7.929,2.768,9.449,3.096
				c1.519,0.329-0.445,2.945-4.418,1.994c0,0,8.338,5.714,8.226,8.257c-0.112,2.543-8.67,6.879-14.446,2.621
				c-1.165-0.859-3.24-2.532-4.918-3.085c-1.678-0.553-6.603-2.458-9.534-6.775l-10.001-5.214
				C206.261,244.869,203.442,233.082,214.663,233.909z"/>
			<g>
				<path style="fill:#FFA8A7;" d="M202.177,171.207c0,0,6.677,5.175,2.575,21.242c-4.103,16.067-6.294,29.921-6.294,29.921
					l16.205,11.538c0,0-6.851,2.435-8.402,10.96c0,0-25.543-10.042-26.058-16.486c-0.515-6.444,5.327-34.354,6.216-39.484
					C187.307,183.768,191.847,173.636,202.177,171.207z"/>
				<path style="fill:#F28F8F;" d="M198.458,222.371c0,0-3.286-0.701-6.11,0.058c0,0,2.504-1.547,6.248-1.55L198.458,222.371z"/>
			</g>
			<path style="fill:#FAFAFA;" d="M310.967,206.126l-5.845,38.257c-0.004,0.027-0.02,0.05-0.043,0.063l-58.056,33.673
				c-0.064,0.037-0.144-0.016-0.132-0.09l5.669-37.098c0.245-1.601,1.182-3.013,2.563-3.86l53.26-32.661
				C309.623,203.648,311.187,204.686,310.967,206.126z"/>
			<path style="fill:#E0E0E0;" d="M247.023,278.118l-31.013-17.963c-1.455-0.843-2.352-2.398-2.352-4.08l0,0l33.621,19.41
				L247.023,278.118z"/>
			<path style="fill:#E0E0E0;" d="M277.367,242.994c0,2.732,1.918,3.84,4.285,2.474c2.366-1.366,4.285-4.689,4.285-7.422
				c0-2.732-1.918-3.84-4.285-2.474C279.285,236.939,277.367,240.262,277.367,242.994z"/>
			<path style="fill:#263238;" d="M213.169,128.208c0,0-2.634-3.895-1.031-5.155C213.742,121.793,215.002,125.802,213.169,128.208z"
				/>
			<path style="fill:#263238;" d="M213.614,129.021c0,0-4.666-0.581-4.559-2.617C209.162,124.367,213.009,126.058,213.614,129.021z"
				/>
			<path style="fill:#FFA8A7;" d="M212.662,166.129c0,0,3.425,9.024,11.328,7.878c7.904-1.146,4.636-7.878,4.636-7.878H212.662z"/>
			<path style="fill:#BA68C8;" d="M202.177,171.207c0,0,5.203,2.49,4.402,12.954c-0.802,10.464-4.925,31.541-4.925,31.541
				s-18.618,7.533-20.389-3.093c-0.458-2.749,4.238-28.178,8.247-33.562C193.521,173.664,198.051,171.945,202.177,171.207z"/>
			<path style="opacity:0.2;" d="M202.177,171.207c0,0,5.203,2.49,4.402,12.954c-0.802,10.464-4.925,31.541-4.925,31.541
				s-18.618,7.533-20.389-3.093c-0.458-2.749,4.238-28.178,8.247-33.562C193.521,173.664,198.051,171.945,202.177,171.207z"/>
			<g>
				<path style="fill:#455A64;" d="M257.633,353.976c0,0,1.159,1.826,3.041,2.123c1.125,0.178-1.157-2.752,1.567-3.926
					c2.724-1.174,8.952-2.795,9.506-0.451l0.69,2.92c0.653,2.761,1.971,5.317,3.841,7.45c1.869,2.131,4.289,4.672,6.165,5.884
					c3.556,2.297,9.405,7.845,1.897,12.569c-7.507,4.724-16.736,0.738-18.542-4.638c-1.807-5.375-3.718-6.929-4.681-7.821
					c-0.963-0.892-3.212-2.294-4.058-5.92c-0.549-2.353-0.863-5.37-1.015-7.196c-0.083-0.996,0.392-1.951,1.236-2.488l0,0
					L257.633,353.976z"/>
				<path style="fill:#263238;" d="M284.342,380.546c-7.507,4.725-16.736,0.738-18.542-4.637c-1.807-5.375-3.718-6.929-4.681-7.821
					c-0.863-0.799-2.75-2.022-3.744-4.872c0.013,0.148,0.03,0.3,0.039,0.445c0.287,4.653,3.138,5.743,4.101,6.635
					c0.963,0.892,2.54,2.366,4.346,7.741c1.807,5.375,11.327,8.726,18.834,4.002c3.644-2.293,4.137-4.779,3.278-6.994
					C288.111,376.849,287.186,378.757,284.342,380.546z"/>
			</g>
		</g>
		<g>
			<g>
				<path style="fill:#BA68C8;" d="M248.259,309.164l-23.923,13.812l-30.194-17.432l23.972-13.84c0.635-0.367,1.417-0.367,2.052,0
					l28.093,16.22C248.736,308.199,248.736,308.888,248.259,309.164z"/>
				<path style="opacity:0.7;" d="M248.259,309.164l-23.923,13.812l-30.194-17.432l23.972-13.84c0.635-0.367,1.417-0.367,2.052,0
					l28.093,16.22C248.736,308.199,248.736,308.888,248.259,309.164z"/>
				<g>
					<path style="fill:#FFFFFF;" d="M246.602,308.657l-22.267,12.856l-28.103-16.225l22.312-12.882c0.591-0.341,1.319-0.341,1.91,0
						l26.147,15.096C247.046,307.758,247.046,308.4,246.602,308.657z"/>
					<polygon style="fill:#FFFFFF;" points="224.335,321.512 224.335,319.005 246.935,305.957 246.935,308.093 					"/>
				</g>
				<polygon style="fill:#E0E0E0;" points="224.335,321.512 224.335,319.005 196.233,302.78 196.233,305.287 				"/>
				<path style="fill:#BA68C8;" d="M248.259,305.193l-23.923,13.812l-30.194-17.432l23.972-13.84c0.635-0.366,1.417-0.366,2.052,0
					l28.093,16.22C248.736,304.228,248.736,304.917,248.259,305.193z"/>
				<path style="opacity:0.5;" d="M248.259,305.193l-23.923,13.812l-30.194-17.432l23.972-13.84c0.635-0.366,1.417-0.366,2.052,0
					l28.093,16.22C248.736,304.228,248.736,304.917,248.259,305.193z"/>
				<g>
					<path style="fill:#FFFFFF;" d="M221.215,321.174c-0.145,0.057-0.306,0.051-0.449-0.025c-0.179-0.096-0.286-0.274-0.286-0.478
						v-2.268c0-1.041,0.557-2.018,1.452-2.548l0.085-0.051c0.121-0.071,0.229-0.025,0.269-0.002
						c0.041,0.023,0.135,0.092,0.135,0.233c0,0.26,0.211,0.47,0.47,0.47c0.26,0,0.47-0.211,0.47-0.47
						c0-0.439-0.228-0.832-0.61-1.049c-0.382-0.218-0.836-0.214-1.214,0.01l-0.085,0.05c-1.181,0.699-1.914,1.985-1.914,3.357v2.268
						c0,0.548,0.3,1.049,0.783,1.307c0.219,0.117,0.459,0.175,0.699,0.175c0.288,0,0.575-0.084,0.824-0.25
						c0.095-0.063,0.153-0.157,0.183-0.259L221.215,321.174z"/>
					<path style="fill:#FFFFFF;" d="M216.745,318.594c-0.145,0.057-0.306,0.051-0.449-0.025c-0.179-0.096-0.286-0.274-0.286-0.477
						v-2.268c0-1.041,0.557-2.017,1.452-2.548l0.085-0.05c0.121-0.071,0.229-0.025,0.269-0.002c0.041,0.023,0.135,0.092,0.135,0.233
						c0,0.26,0.211,0.47,0.47,0.47c0.26,0,0.47-0.211,0.47-0.47c0-0.439-0.228-0.832-0.61-1.049
						c-0.382-0.218-0.835-0.214-1.214,0.01l-0.085,0.051c-1.181,0.699-1.914,1.985-1.914,3.357v2.268c0,0.548,0.3,1.048,0.783,1.307
						c0.219,0.117,0.459,0.175,0.699,0.175c0.288,0,0.575-0.084,0.824-0.25c0.095-0.063,0.153-0.157,0.183-0.259L216.745,318.594z"
						/>
					<path style="fill:#FFFFFF;" d="M212.275,316.014c-0.145,0.057-0.306,0.051-0.449-0.025c-0.179-0.096-0.286-0.274-0.286-0.477
						v-2.268c0-1.041,0.557-2.017,1.452-2.548l0.085-0.051c0.121-0.071,0.229-0.025,0.269-0.002
						c0.041,0.023,0.135,0.092,0.135,0.233c0,0.26,0.21,0.47,0.47,0.47c0.26,0,0.47-0.211,0.47-0.47c0-0.44-0.228-0.832-0.61-1.049
						c-0.382-0.218-0.835-0.214-1.213,0.01l-0.085,0.051c-1.181,0.699-1.914,1.985-1.914,3.357v2.268c0,0.548,0.3,1.048,0.783,1.307
						c0.219,0.117,0.459,0.175,0.699,0.175c0.288,0,0.575-0.084,0.824-0.25c0.095-0.063,0.153-0.157,0.183-0.259L212.275,316.014z"
						/>
					<path style="fill:#FFFFFF;" d="M207.805,313.434c-0.145,0.057-0.306,0.051-0.449-0.025c-0.179-0.096-0.286-0.274-0.286-0.477
						v-2.268c0-1.041,0.557-2.018,1.453-2.548l0.085-0.051c0.121-0.071,0.229-0.025,0.269-0.002
						c0.041,0.023,0.135,0.092,0.135,0.233c0,0.26,0.21,0.47,0.47,0.47c0.26,0,0.47-0.21,0.47-0.47c0-0.44-0.228-0.832-0.61-1.049
						c-0.382-0.217-0.836-0.214-1.214,0.01l-0.085,0.051c-1.181,0.699-1.914,1.986-1.914,3.357v2.268c0,0.548,0.3,1.049,0.783,1.307
						c0.219,0.117,0.459,0.175,0.699,0.175c0.288,0,0.575-0.084,0.824-0.25c0.095-0.063,0.153-0.158,0.183-0.259L207.805,313.434z"
						/>
					<path style="fill:#FFFFFF;" d="M203.335,310.854c-0.145,0.057-0.306,0.051-0.449-0.026c-0.179-0.096-0.286-0.274-0.286-0.478
						v-2.268c0-1.041,0.557-2.018,1.453-2.548l0.085-0.05c0.121-0.071,0.229-0.026,0.269-0.002c0.041,0.023,0.135,0.092,0.135,0.233
						c0,0.259,0.211,0.47,0.47,0.47c0.259,0,0.47-0.211,0.47-0.47c0-0.44-0.228-0.832-0.61-1.05
						c-0.382-0.218-0.836-0.214-1.214,0.01l-0.086,0.051c-1.181,0.699-1.914,1.986-1.914,3.357v2.268c0,0.548,0.3,1.049,0.783,1.307
						c0.219,0.117,0.459,0.175,0.699,0.175c0.288,0,0.575-0.084,0.824-0.25c0.095-0.064,0.153-0.158,0.183-0.259L203.335,310.854z"
						/>
					<path style="fill:#FFFFFF;" d="M198.865,308.274c-0.145,0.057-0.306,0.051-0.449-0.026c-0.179-0.096-0.286-0.274-0.286-0.477
						v-2.268c0-1.041,0.557-2.018,1.452-2.548l0.085-0.051c0.121-0.071,0.229-0.026,0.269-0.002
						c0.041,0.023,0.135,0.092,0.135,0.233c0,0.259,0.211,0.47,0.47,0.47c0.26,0,0.47-0.211,0.47-0.47c0-0.44-0.228-0.832-0.61-1.05
						c-0.382-0.218-0.836-0.214-1.214,0.01l-0.085,0.05c-1.181,0.699-1.914,1.985-1.914,3.357v2.268c0,0.548,0.3,1.049,0.783,1.307
						c0.219,0.117,0.459,0.175,0.699,0.175c0.288,0,0.575-0.084,0.824-0.25c0.095-0.064,0.153-0.158,0.183-0.259L198.865,308.274z"
						/>
				</g>
			</g>
			<polygon style="fill:#E6E6E6;" points="251.345,298.95 225.481,313.883 191.823,294.451 217.687,279.518 			"/>
			<g>
				<polygon style="fill:#FAFAFA;" points="252.831,298.462 225.807,311.176 193.894,288.993 220.918,276.279 				"/>
			</g>
		</g>
		<g>
			<path style="fill:#BA68C8;" d="M192.501,258.75h-10.932h-11.016l1.969,23.233h0.008c0.116,1.237,0.982,2.456,2.619,3.401
				c3.523,2.034,9.235,2.034,12.758,0c1.637-0.945,2.503-2.163,2.619-3.401h0.006L192.501,258.75z"/>
			<g>
				<path style="fill:#E0E0E0;" d="M193.905,257.481v-1.841h-0.433c-0.544-1.171-1.6-2.279-3.191-3.198
					c-4.834-2.791-12.671-2.791-17.505,0c-1.591,0.919-2.648,2.027-3.191,3.198h-0.434v1.855c0,1.829,1.208,3.658,3.625,5.053
					c4.834,2.791,12.671,2.791,17.505,0C192.704,261.15,193.911,259.315,193.905,257.481z"/>
				<path style="fill:#EBEBEB;" d="M190.281,260.802c-4.834,2.791-12.671,2.791-17.505,0c-4.834-2.791-4.834-7.315,0-10.106
					c4.834-2.791,12.671-2.791,17.505,0C195.114,253.486,195.115,258.011,190.281,260.802z"/>
				<path style="fill:#E0E0E0;" d="M191.445,254.983v-1.475h-0.347c-0.436-0.938-1.282-1.826-2.557-2.562
					c-3.873-2.236-10.153-2.236-14.026,0c-1.275,0.736-2.121,1.624-2.557,2.562h-0.348v1.487c0,1.465,0.968,2.931,2.905,4.049
					c3.873,2.236,10.152,2.236,14.025,0C190.483,257.922,191.45,256.452,191.445,254.983z"/>
				<path style="fill:#F5F5F5;" d="M188.541,257.643c-3.873,2.236-10.152,2.236-14.025,0c-3.873-2.236-3.873-5.862,0-8.098
					c3.873-2.236,10.152-2.236,14.026,0C192.414,251.782,192.414,255.407,188.541,257.643z"/>
				<path style="fill:#F0F0F0;" d="M186.923,256.463c-2.974,1.72-7.812,1.72-10.797,0c-2.885-1.664-2.985-4.328-0.3-6.048
					c0.1-0.067,0.2-0.133,0.3-0.189c0.621-0.355,1.332-0.644,2.086-0.854c2.841-0.788,6.358-0.51,8.711,0.854
					C189.908,251.947,189.908,254.743,186.923,256.463z"/>
				<path style="fill:#E0E0E0;" d="M176.129,251.116c2.982-1.722,7.816-1.722,10.798,0c1.296,0.748,2.027,1.698,2.197,2.674
					c0.221-1.271-0.51-2.586-2.197-3.56c-2.982-1.722-7.817-1.722-10.798,0c-1.686,0.973-2.417,2.289-2.197,3.56
					C174.102,252.814,174.834,251.864,176.129,251.116z"/>
				<path style="fill:#E0E0E0;" d="M180.21,251.414l-2.219,1.409l-2.164-1.553v-0.854c0.1-0.067,0.2-0.133,0.3-0.189
					c0.621-0.355,1.332-0.644,2.086-0.854v0.643L180.21,251.414z"/>
			</g>
		</g>
	</g>
</g>
<g id="Screen">
	<path style="fill:none;stroke:#FFFFFF;stroke-width:1.1515;stroke-miterlimit:10;" d="M275.997,39.893"/>
	<g>
		<g>
			<g>
				<path style="fill:#BA68C8;" d="M440.865,114.948L316.384,43.079c-1.428-0.824-2.713-0.763-3.623-0.007l-4.309,2.98l2.939,3.633
					V150.07c0,3.677,2.236,7.949,4.993,9.541l123.243,71.154l0.229,3.915l4.54-3.112c0.904-0.683,1.462-2.025,1.462-3.863V124.49
					C445.858,120.812,443.623,116.541,440.865,114.948z"/>
				<path style="opacity:0.3;" d="M440.865,114.948L316.384,43.079c-1.428-0.824-2.713-0.763-3.623-0.007l-4.309,2.98l2.939,3.633
					V150.07c0,3.677,2.236,7.949,4.993,9.541l123.243,71.154l0.229,3.915l4.54-3.112c0.904-0.683,1.462-2.025,1.462-3.863V124.49
					C445.858,120.812,443.623,116.541,440.865,114.948z"/>
				<path style="fill:#BA68C8;" d="M436.625,234.399L312.144,162.53c-2.758-1.592-4.994-5.864-4.994-9.541V49.773
					c0-3.677,2.236-5.367,4.994-3.775l124.481,71.869c2.758,1.592,4.994,5.864,4.994,9.541v103.216
					C441.618,234.301,439.383,235.991,436.625,234.399z"/>
				<path style="fill:#BA68C8;" d="M436.625,234.399L312.144,162.53c-2.758-1.592-4.994-5.864-4.994-9.541V49.773
					c0-3.677,2.236-5.367,4.994-3.775l124.481,71.869c2.758,1.592,4.994,5.864,4.994,9.541v103.216
					C441.618,234.301,439.383,235.991,436.625,234.399z"/>
				<path style="fill:#455A64;" d="M436.625,117.867L312.144,45.998c-2.758-1.592-4.994,0.098-4.994,3.775v5.046l134.468,77.635
					v-5.046C441.618,123.731,439.383,119.459,436.625,117.867z"/>
				<path style="fill:#BA68C8;" d="M310.162,46.398L310.162,46.398c0.443,0,0.955,0.161,1.482,0.465l124.481,71.869
					c2.436,1.406,4.493,5.379,4.493,8.675v103.216c0,2.05-0.789,3.374-2.011,3.374c-0.449,0-0.948-0.157-1.482-0.465
					l-124.481-71.869c-2.436-1.406-4.494-5.379-4.494-8.675V49.773C308.15,47.723,308.94,46.398,310.162,46.398 M310.162,45.398
					c-1.772,0-3.011,1.636-3.011,4.374v103.216c0,3.677,2.236,7.949,4.994,9.541l124.481,71.869
					c0.704,0.407,1.375,0.599,1.982,0.599c1.772,0,3.011-1.636,3.011-4.374V127.408c0-3.677-2.236-7.949-4.993-9.541L312.144,45.998
					C311.44,45.591,310.769,45.398,310.162,45.398L310.162,45.398z"/>
			</g>
		</g>
		<g>
			<path style="fill:#FFFFFF;" d="M364.856,100.043c-0.18,0-0.362-0.045-0.529-0.142l-47.384-27.357
				c-0.506-0.292-0.68-0.94-0.387-1.447c0.292-0.505,0.939-0.68,1.447-0.388l47.384,27.357c0.506,0.293,0.68,0.94,0.388,1.447
				C365.579,99.853,365.223,100.043,364.856,100.043z"/>
			<path style="fill:#FFFFFF;" d="M431.527,138.535c-0.18,0-0.362-0.046-0.529-0.142l-35.1-20.265
				c-0.506-0.292-0.68-0.94-0.387-1.447c0.291-0.506,0.94-0.681,1.447-0.387l35.1,20.265c0.506,0.292,0.68,0.94,0.387,1.447
				C432.249,138.345,431.894,138.535,431.527,138.535z"/>
			<path style="fill:#FFFFFF;" d="M388.818,113.877c-0.18,0-0.362-0.046-0.529-0.142l-14.257-8.231
				c-0.506-0.293-0.68-0.94-0.388-1.447c0.293-0.506,0.941-0.681,1.447-0.388l14.257,8.231c0.506,0.293,0.68,0.94,0.388,1.447
				C389.54,113.687,389.184,113.877,388.818,113.877z"/>
			<path style="fill:#FFFFFF;" d="M364.856,166.41c-0.18,0-0.362-0.046-0.529-0.142l-47.384-27.357
				c-0.506-0.292-0.68-0.94-0.387-1.447c0.292-0.506,0.939-0.679,1.447-0.388l47.384,27.357c0.506,0.293,0.68,0.94,0.388,1.447
				C365.579,166.22,365.223,166.41,364.856,166.41z"/>
			<path style="fill:#FFFFFF;" d="M431.527,204.903c-0.18,0-0.362-0.045-0.529-0.142l-35.1-20.266
				c-0.506-0.293-0.68-0.94-0.387-1.447c0.291-0.506,0.94-0.682,1.447-0.387l35.1,20.265c0.506,0.292,0.68,0.94,0.387,1.447
				C432.249,204.713,431.894,204.903,431.527,204.903z"/>
			<path style="fill:#FFFFFF;" d="M388.818,180.244c-0.18,0-0.362-0.045-0.529-0.142l-14.257-8.231
				c-0.506-0.292-0.68-0.94-0.388-1.447c0.293-0.506,0.941-0.68,1.447-0.388l14.257,8.231c0.506,0.293,0.68,0.94,0.388,1.447
				C389.54,180.054,389.184,180.244,388.818,180.244z"/>
			<path style="fill:#FFFFFF;" d="M364.856,182.014c-0.18,0-0.362-0.045-0.529-0.142l-47.384-27.357
				c-0.506-0.292-0.68-0.94-0.388-1.447c0.293-0.506,0.939-0.68,1.447-0.388l47.384,27.357c0.506,0.292,0.68,0.94,0.388,1.447
				C365.579,181.824,365.223,182.014,364.856,182.014z"/>
			<path style="fill:#FFFFFF;" d="M416.588,211.882c-0.18,0-0.362-0.045-0.529-0.142l-20.161-11.639
				c-0.506-0.292-0.68-0.94-0.388-1.447c0.293-0.506,0.941-0.681,1.447-0.387l20.161,11.639c0.506,0.292,0.68,0.94,0.388,1.447
				C417.31,211.692,416.955,211.882,416.588,211.882z"/>
			<path style="fill:#FFFFFF;" d="M388.818,195.849c-0.18,0-0.362-0.045-0.529-0.142l-14.257-8.231
				c-0.506-0.293-0.68-0.941-0.388-1.447c0.293-0.506,0.941-0.68,1.447-0.388l14.257,8.231c0.506,0.292,0.68,0.94,0.388,1.447
				C389.54,195.659,389.184,195.849,388.818,195.849z"/>
			<path style="fill:#FFFFFF;" d="M341.226,94.646c-0.18,0-0.362-0.045-0.529-0.142L316.943,80.79
				c-0.506-0.292-0.68-0.94-0.387-1.447c0.292-0.505,0.939-0.681,1.447-0.387l23.753,13.714c0.506,0.292,0.68,0.94,0.388,1.447
				C341.948,94.456,341.592,94.646,341.226,94.646z"/>
			<path style="fill:#FFFFFF;" d="M409.661,134.157c-0.18,0-0.362-0.045-0.529-0.142l-35.1-20.265
				c-0.506-0.292-0.68-0.94-0.388-1.447c0.293-0.506,0.941-0.679,1.447-0.388l35.1,20.265c0.506,0.292,0.68,0.94,0.388,1.447
				C410.383,133.967,410.027,134.157,409.661,134.157z"/>
			<path style="fill:#FFFFFF;" d="M365.187,108.48c-0.18,0-0.362-0.045-0.529-0.142l-14.256-8.231
				c-0.506-0.292-0.68-0.94-0.388-1.447c0.293-0.506,0.939-0.681,1.447-0.387l14.256,8.231c0.506,0.292,0.68,0.94,0.387,1.447
				C365.909,108.29,365.553,108.48,365.187,108.48z"/>
			<path style="fill:#FFFFFF;" d="M364.856,116.536c-0.18,0-0.362-0.045-0.529-0.142l-47.384-27.357
				c-0.506-0.293-0.68-0.94-0.388-1.447c0.293-0.506,0.939-0.679,1.447-0.388l47.384,27.357c0.506,0.293,0.68,0.94,0.388,1.447
				C365.579,116.346,365.223,116.536,364.856,116.536z"/>
			<path style="fill:#FFFFFF;" d="M405.777,140.162c-0.18,0-0.362-0.045-0.529-0.142l-9.35-5.398
				c-0.506-0.292-0.68-0.941-0.387-1.447c0.291-0.505,0.94-0.68,1.447-0.388l9.35,5.398c0.506,0.292,0.68,0.94,0.387,1.447
				C406.499,139.972,406.144,140.162,405.777,140.162z"/>
			<path style="fill:#FFFFFF;" d="M345.901,113.838c-0.18,0-0.362-0.045-0.529-0.142l-9.35-5.398
				c-0.506-0.292-0.68-0.94-0.388-1.447c0.293-0.507,0.939-0.681,1.447-0.388l9.35,5.398c0.506,0.292,0.68,0.94,0.388,1.447
				C346.623,113.648,346.267,113.838,345.901,113.838z"/>
			<path style="fill:#FFFFFF;" d="M388.818,130.37c-0.18,0-0.362-0.045-0.529-0.142l-14.257-8.231
				c-0.506-0.292-0.68-0.94-0.388-1.447c0.293-0.506,0.941-0.68,1.447-0.388l14.257,8.231c0.506,0.292,0.68,0.94,0.388,1.447
				C389.54,130.18,389.184,130.37,388.818,130.37z"/>
			<path style="fill:#FFFFFF;" d="M332.66,106.193c-0.18,0-0.362-0.045-0.529-0.142l-15.188-8.768
				c-0.506-0.292-0.68-0.94-0.388-1.447c0.293-0.506,0.939-0.68,1.447-0.388l15.188,8.768c0.506,0.293,0.68,0.94,0.388,1.447
				C333.382,106.003,333.026,106.193,332.66,106.193z"/>
			<path style="fill:#FFFFFF;" d="M365.187,124.974c-0.18,0-0.362-0.045-0.529-0.142l-14.256-8.231
				c-0.506-0.292-0.68-0.94-0.388-1.447c0.293-0.506,0.939-0.681,1.447-0.387l14.256,8.231c0.506,0.292,0.68,0.94,0.387,1.447
				C365.909,124.784,365.553,124.974,365.187,124.974z"/>
			<path style="fill:#FFFFFF;" d="M364.856,133.63c-0.18,0-0.362-0.045-0.529-0.142l-47.384-27.357
				c-0.506-0.292-0.68-0.94-0.388-1.447c0.293-0.505,0.939-0.681,1.447-0.388l47.384,27.357c0.506,0.293,0.68,0.94,0.388,1.447
				C365.579,133.44,365.223,133.63,364.856,133.63z"/>
			<path style="fill:#FFFFFF;" d="M431.527,172.123c-0.18,0-0.362-0.045-0.529-0.142l-35.1-20.265
				c-0.506-0.292-0.68-0.94-0.387-1.447c0.291-0.505,0.94-0.682,1.447-0.387l35.1,20.265c0.506,0.292,0.68,0.94,0.387,1.447
				C432.249,171.933,431.894,172.123,431.527,172.123z"/>
			<path style="fill:#FFFFFF;" d="M388.818,147.465c-0.18,0-0.362-0.045-0.529-0.142l-14.257-8.231
				c-0.506-0.292-0.68-0.94-0.388-1.447c0.293-0.506,0.941-0.679,1.447-0.388l14.257,8.231c0.506,0.293,0.68,0.94,0.388,1.447
				C389.54,147.275,389.184,147.465,388.818,147.465z"/>
			<path style="fill:#FFFFFF;" d="M341.226,128.234c-0.18,0-0.362-0.045-0.529-0.142l-23.753-13.714
				c-0.506-0.293-0.68-0.94-0.388-1.447c0.293-0.506,0.939-0.679,1.447-0.388l23.753,13.714c0.506,0.292,0.68,0.94,0.388,1.447
				C341.948,128.044,341.592,128.234,341.226,128.234z"/>
			<path style="fill:#FFFFFF;" d="M409.661,167.745c-0.18,0-0.362-0.045-0.529-0.142l-35.1-20.265
				c-0.506-0.292-0.68-0.94-0.388-1.447c0.293-0.506,0.941-0.68,1.447-0.388l35.1,20.265c0.506,0.292,0.68,0.94,0.388,1.447
				C410.383,167.555,410.027,167.745,409.661,167.745z"/>
			<path style="fill:#FFFFFF;" d="M365.187,142.068c-0.18,0-0.362-0.045-0.529-0.142l-14.256-8.231
				c-0.506-0.292-0.68-0.94-0.388-1.447c0.293-0.506,0.939-0.681,1.447-0.388l14.256,8.231c0.506,0.292,0.68,0.94,0.387,1.447
				C365.909,141.878,365.553,142.068,365.187,142.068z"/>
			<path style="fill:#FFFFFF;" d="M364.856,150.124c-0.18,0-0.362-0.045-0.529-0.142l-47.384-27.357
				c-0.506-0.293-0.68-0.94-0.388-1.447c0.293-0.506,0.939-0.68,1.447-0.388l47.384,27.357c0.506,0.292,0.68,0.94,0.388,1.447
				C365.579,149.934,365.223,150.124,364.856,150.124z"/>
			<path style="fill:#FFFFFF;" d="M405.777,173.749c-0.18,0-0.362-0.045-0.529-0.142l-9.35-5.398
				c-0.506-0.293-0.68-0.941-0.387-1.447c0.291-0.505,0.94-0.681,1.447-0.388l9.35,5.398c0.506,0.292,0.68,0.94,0.387,1.447
				C406.499,173.56,406.144,173.749,405.777,173.749z"/>
			<path style="fill:#FFFFFF;" d="M345.901,147.426c-0.18,0-0.362-0.045-0.529-0.142l-9.35-5.398
				c-0.506-0.292-0.68-0.94-0.387-1.447c0.292-0.505,0.939-0.682,1.447-0.387l9.35,5.398c0.506,0.293,0.68,0.94,0.387,1.447
				C346.623,147.236,346.267,147.426,345.901,147.426z"/>
			<path style="fill:#FFFFFF;" d="M388.818,163.958c-0.18,0-0.362-0.045-0.529-0.142l-14.257-8.231
				c-0.506-0.293-0.68-0.941-0.388-1.447c0.293-0.506,0.941-0.679,1.447-0.388l14.257,8.231c0.506,0.292,0.68,0.94,0.388,1.447
				C389.54,163.768,389.184,163.958,388.818,163.958z"/>
			<path style="fill:#FFFFFF;" d="M332.66,139.781c-0.18,0-0.362-0.046-0.529-0.142l-15.188-8.768
				c-0.506-0.292-0.68-0.94-0.388-1.447c0.293-0.506,0.939-0.68,1.447-0.388l15.188,8.768c0.506,0.292,0.68,0.94,0.388,1.447
				C333.382,139.591,333.026,139.781,332.66,139.781z"/>
			<path style="fill:#FFFFFF;" d="M365.187,158.561c-0.18,0-0.362-0.045-0.529-0.142l-14.256-8.231
				c-0.506-0.292-0.68-0.94-0.388-1.447c0.293-0.506,0.939-0.68,1.447-0.388l14.256,8.232c0.506,0.292,0.68,0.94,0.387,1.447
				C365.909,158.371,365.553,158.561,365.187,158.561z"/>
			<path style="fill:#FFFFFF;" d="M345.901,163.233c-0.18,0-0.362-0.045-0.529-0.142l-9.35-5.398
				c-0.506-0.292-0.68-0.94-0.388-1.447c0.293-0.505,0.939-0.68,1.447-0.388l9.35,5.398c0.506,0.292,0.68,0.94,0.388,1.447
				C346.623,163.044,346.267,163.233,345.901,163.233z"/>
			<path style="fill:#FFFFFF;" d="M332.66,155.589c-0.18,0-0.362-0.045-0.529-0.142l-15.188-8.768
				c-0.506-0.292-0.68-0.94-0.388-1.447c0.293-0.506,0.939-0.681,1.447-0.387l15.188,8.768c0.506,0.292,0.68,0.94,0.388,1.447
				C333.382,155.399,333.026,155.589,332.66,155.589z"/>
			<path style="fill:#FFFFFF;" d="M365.187,174.369c-0.18,0-0.362-0.046-0.529-0.142l-14.256-8.231
				c-0.506-0.292-0.68-0.94-0.388-1.447c0.293-0.506,0.939-0.68,1.447-0.388l14.256,8.231c0.506,0.292,0.68,0.94,0.387,1.447
				C365.909,174.179,365.553,174.369,365.187,174.369z"/>
		</g>
		<g>
			<g>
				<path style="fill:#263238;" d="M326.853,82.828v38.344c0,0.615-0.226,1.029-0.572,1.164l-0.01,0.003l-0.002,0.002l-1.468,0.804
					l0.008-1.307l-0.208-39.422l1.922-0.971C326.729,81.886,326.853,82.374,326.853,82.828z"/>
				<path style="fill:#37474F;" d="M326.524,81.447l-1.922,0.971L278.11,55.164l-1.108-0.645l1.531-0.862l0.044-0.026V53.63
					c0.244-0.147,0.564-0.137,0.916,0.066l45.977,26.491C325.892,80.431,326.27,80.901,326.524,81.447z"/>
				<path style="fill:#455A64;" d="M325.186,83.664v38.09c0,0.53-0.169,0.91-0.438,1.088l-0.088,0.048
					c-0.234,0.111-0.528,0.087-0.848-0.098l-45.701-26.332c-0.759-0.438-1.376-1.615-1.376-2.626V55.745
					c0-0.512,0.157-0.883,0.411-1.069c0.043-0.032,0.09-0.059,0.14-0.079c0.23-0.098,0.515-0.069,0.825,0.109l45.701,26.333
					c0.404,0.233,0.767,0.676,1.018,1.191C325.051,82.681,325.186,83.19,325.186,83.664z"/>
				
					<text transform="matrix(-0.866 -0.5 0 1 316.9501 108.3479)" style="fill:#FAFAFA; font-family:'Montserrat-Bold'; font-size:25.7999px;">&lt;/&gt;</text>
			</g>
			<path style="fill:#37474F;" d="M277.382,54.64c0.128,0,0.27,0.044,0.422,0.132l45.977,26.491c0.346,0.199,0.682,0.596,0.922,1.09
				c0.214,0.436,0.333,0.909,0.333,1.33v38.32c0,0.424-0.119,0.745-0.308,0.871l-0.076,0.042c-0.06,0.028-0.126,0.042-0.197,0.042
				c-0.127,0-0.268-0.044-0.419-0.131l-45.977-26.491c-0.681-0.393-1.257-1.502-1.257-2.421V55.595c0-0.409,0.113-0.726,0.31-0.871
				c0.028-0.021,0.055-0.036,0.089-0.049C277.256,54.652,277.317,54.64,277.382,54.64 M277.382,54.385
				c-0.1,0-0.195,0.019-0.281,0.056c-0.05,0.019-0.097,0.047-0.141,0.079c-0.255,0.187-0.413,0.56-0.413,1.076v38.318
				c0,1.018,0.62,2.201,1.384,2.642l45.977,26.491c0.194,0.112,0.379,0.166,0.547,0.166c0.11,0,0.213-0.023,0.306-0.067l0.089-0.049
				c0.271-0.179,0.441-0.562,0.441-1.095v-38.32c0-0.477-0.136-0.988-0.359-1.442c-0.252-0.518-0.617-0.964-1.024-1.198
				L277.931,54.55C277.735,54.438,277.55,54.385,277.382,54.385L277.382,54.385z"/>
		</g>
		<g>
			<path style="fill:#FFFFFF;" d="M319.457,55.627c0,1.091-0.766,1.533-1.711,0.988c-0.945-0.546-1.711-1.872-1.711-2.963
				s0.766-1.533,1.711-0.988C318.691,53.21,319.457,54.536,319.457,55.627z"/>
			<path style="fill:#FFFFFF;" d="M325.815,59.553c0,1.091-0.766,1.533-1.711,0.988c-0.945-0.545-1.711-1.872-1.711-2.963
				s0.766-1.533,1.711-0.988C325.05,57.136,325.815,58.462,325.815,59.553z"/>
			<path style="fill:#FFFFFF;" d="M332.174,63.479c0,1.091-0.766,1.533-1.711,0.988c-0.945-0.545-1.711-1.872-1.711-2.963
				s0.766-1.533,1.711-0.988C331.408,61.061,332.174,62.388,332.174,63.479z"/>
		</g>
	</g>
</g>
</svg>
